<svg width="18" height="18" viewBox="0 0 18 18" fill="none" xmlns="http://www.w3.org/2000/svg">
<rect x="3.75" width="10.5" height="16.5" rx="1.5" fill="white"/>
<path d="M15.75 4.875C15.75 4.66789 15.9179 4.5 16.125 4.5H16.5C17.3284 4.5 18 5.17157 18 6V16.5C18 17.3284 17.3284 18 16.5 18H16.125C15.9179 18 15.75 17.8321 15.75 17.625V4.875Z" fill="white"/>
<path d="M2.25 17.625C2.25 17.8321 2.08211 18 1.875 18H1.5C0.671573 18 0 17.3284 0 16.5V6C0 5.17157 0.671573 4.5 1.5 4.5H1.875C2.08211 4.5 2.25 4.66789 2.25 4.875V17.625Z" fill="white"/>
</svg>
